<svg class="logo" width="96" height="15" fill="none" xmlns="http://www.w3.org/2000/svg"><g class="logo__mobile" fill="#192144"><path d="M94.911 6.189C95.637 5.727 96 5.016 96 4.055c0-1.255-.523-2.242-1.568-2.96C93.416.366 92.22 0 90.84 0c-1.35 0-2.584.397-3.701 1.192-1.104.781-1.655 1.825-1.655 3.132 0 .487.152.89.457 1.211.305.308.74.462 1.307.462.551 0 .972-.154 1.263-.462.304-.32.457-.724.457-1.21-.03-.372.094-.75.37-1.135.276-.397.777-.595 1.502-.595.61.012 1.046.166 1.307.46.276.296.4.59.37.885 0 .205-.073.41-.218.615a2.031 2.031 0 01-.457.48c-.145.116-.385.282-.718.5-.334.218-.567.372-.697.462-.755.55-1.133 1.28-1.133 2.19 0 .449.16.827.48 1.135.333.294.776.442 1.328.442.551 0 .987-.148 1.306-.442.334-.308.501-.686.501-1.134 0-.193.036-.372.109-.539.073-.166.189-.32.348-.46.175-.142.32-.257.436-.347.13-.09.32-.205.566-.346.261-.14.443-.243.544-.307zM76.305 10.235l3.857-4.771c.395-.577.932-.897 1.61-.963.678-.078 1.271.085 1.78.491.509.406.749.95.72 1.63v6.834c0 .432-.169.799-.508 1.1-.325.288-.72.432-1.187.432-.466 0-.868-.144-1.207-.432a1.443 1.443 0 01-.488-1.1V9.214l-3.856 4.772c-.396.576-.933.897-1.61.962-.679.079-1.272-.085-1.78-.49-.51-.406-.75-.95-.721-1.63V6.013c0-.432.162-.798.487-1.1a1.758 1.758 0 011.208-.451c.466 0 .862.15 1.187.452.339.3.508.667.508 1.1v4.221z"/><path fill-rule="evenodd" clip-rule="evenodd" d="M58.967 13.389V5.975c0-.426-.178-.793-.535-1.1a1.725 1.725 0 00-1.219-.479 1.7 1.7 0 00-1.198.48c-.342.306-.513.673-.513 1.099v-.18c-.171-.4-.513-.74-1.027-1.019-.513-.293-1.097-.44-1.753-.44-1.284 0-2.467.473-3.55 1.42C48.115 6.7 47.588 8 47.588 9.651c0 1.692.52 3.004 1.56 3.937 1.042.932 2.232 1.399 3.573 1.399.656 0 1.233-.12 1.732-.36.5-.253.863-.553 1.09-.9.086.36.286.66.6.9.313.226.67.34 1.07.34.47 0 .876-.154 1.218-.46.357-.306.535-.68.535-1.12zm-5.47-1.362c1.169 0 2.116-1.026 2.116-2.291 0-1.266-.947-2.291-2.116-2.291S51.38 8.47 51.38 9.735c0 1.266.948 2.292 2.117 2.292z"/><path d="M43.081 8.237V6.094c0-.435.177-.804.53-1.108a1.793 1.793 0 011.236-.475c.47 0 .882.159 1.235.475.353.304.53.673.53 1.108v7.343c0 .435-.177.804-.53 1.108-.338.303-.75.455-1.235.455-.486 0-.905-.152-1.258-.455a1.434 1.434 0 01-.508-1.108v-2.175h-3.817v2.175c0 .435-.177.804-.53 1.108-.338.303-.75.455-1.235.455-.486 0-.905-.152-1.258-.455a1.434 1.434 0 01-.508-1.108V6.094c0-.435.177-.804.53-1.108a1.793 1.793 0 011.236-.475c.47 0 .882.159 1.235.475.353.304.53.673.53 1.108v2.143h3.817zM33.962 4.511c.346 0 .642.131.89.394.247.262.37.867.37 1.234 0 .368-.123.747-.37 1.01-.247.262-.544.354-.89.354h-2.958v5.971c0 1.13-.994 1.526-1.99 1.526-.924 0-1.807-.5-1.807-1.515l.03-8.974h6.725zM12.855 0v13.332c0 .44-.239.812-.57 1.118-.317.307-.815.46-1.27.46-.455 0-1.113-.153-1.444-.46a1.497 1.497 0 01-.476-1.118V3.008H3.772v10.322c0 .44-.165.813-.496 1.12-.317.306-.963.46-1.418.46-.455 0-1.051-.154-1.382-.46A1.497 1.497 0 010 13.33V0h12.855zM24.637 13.365c-1.076 1.01-2.517 1.516-4.322 1.516-1.804 0-3.237-.505-4.298-1.516-1.092-1.026-1.638-2.308-1.638-3.847 0-1.554.546-2.836 1.638-3.847 1.06-1.01 2.494-1.516 4.298-1.516 1.805 0 3.246.505 4.322 1.516 1.077 1.026 1.615 2.308 1.615 3.847 0 1.539-.538 2.821-1.614 3.847zm-2.802-5.43a1.835 1.835 0 00-1.116-.567 2.288 2.288 0 00-1.235.114c-.38.15-.704.407-.973.769-.254.362-.364.784-.333 1.267 0 .634.198 1.162.594 1.584.412.407.926.611 1.543.611.634 0 1.148-.196 1.544-.588.396-.408.594-.943.594-1.607 0-.633-.206-1.161-.618-1.584zM64.022 4.462c2.024 0 7.417.03 7.417.03s.004 6.591.004 8.894c0 .443-.182.824-.546 1.145-.347.305-.662.457-1.191.457-.53 0-.8.04-1.164-.265-.347-.32-.667-.894-.667-1.337v-5.95H65.42c0 4.266 0 5.203-1.57 6.728-.58.55-1.325.824-2.235.824-.546 0-.867-.13-1.214-.436-.347-.32-.617-.832-.617-1.304 0-1.018.213-1.423.76-2.088 1.566 0 1.498-.38 1.4-3.266v-1.83c.017-.443.098-1.602.098-1.602h1.98zM93.16 12.745c0 1.239-1.05 2.243-2.345 2.243-1.295 0-2.344-1.005-2.344-2.243s1.05-2.242 2.344-2.242c1.295 0 2.345 1.004 2.345 2.242z"/></g><g class="logo__tablet"><path d="M78.016 10.62L44.736 42 32.59 1.772l45.427 8.849z" fill="#FF8D30"/><ellipse cx="78.624" cy="28.474" rx="3.613" ry="3.572" fill="#88BFEB"/><ellipse cx="92.85" cy="18.086" rx="12.594" ry="12.45" fill="#EB9898"/><path fill="#72A73E" d="M85.439 19.575l43.818-16.03 8.258 22.06-43.818 16.029z"/><ellipse cx="91.334" cy="34.141" rx="2.117" ry="2.093" fill="#FFBD30"/><ellipse rx="18.919" ry="7.587" transform="matrix(.97025 .24212 -.24742 .9689 132.047 28.05)" fill="#8EC7F5"/><ellipse cx="146.385" cy="10.256" rx="2.153" ry="2.128" fill="#FFBD30"/><ellipse cx="153.102" cy="7.728" rx="2.153" ry="2.128" fill="#FFBD30"/><path d="M3.342 35.349h4.99v2.32a1 1 0 01-1 1h-2.99a1 1 0 01-1-1v-2.32zM34.204 35.349h4.99v2.32a1 1 0 01-1 1h-2.99a1 1 0 01-1-1v-2.32z" fill="#1D2959"/><path fill-rule="evenodd" clip-rule="evenodd" d="M23.92 2.938c-.973-.384-2.036-.693-2.808-.677-.726.014-1.721.325-2.629.7-.508.21-1.01.44-1.493.702l-.003.002a1.187 1.187 0 01-1.609-.462 1.175 1.175 0 01.464-1.6c.167-.091.335-.177.505-.262.306-.15.735-.353 1.23-.557.948-.391 2.29-.76 3.488-.783 1.274-.025 2.712.346 3.729.747.633.25 1.259.527 1.86.849.575.31.79 1.024.478 1.597-.309.569-1.038.778-1.607.474a17.896 17.896 0 00-1.604-.73z" fill="#8A4A38"/><path fill-rule="evenodd" clip-rule="evenodd" d="M15.993 1.45a.961.961 0 00-.961.961v.615c0 .442.358.801.8.801h.022v3.067h.84V3.805h-.219a1.189 1.189 0 00-.229-2.355h-.253zM26.513 1.45c.53 0 .961.43.961.961v.615a.801.801 0 01-.801.801h-.022v3.067h-.838V3.805h.218a1.189 1.189 0 01.228-2.355h.254z" fill="#F6EF3E"/><path d="M0 15.52a9 9 0 019-9h24.54a9 9 0 019 9V35.35H0V15.52z" fill="#8A4A38"/><ellipse cx="6.684" cy="27.928" rx="4.167" ry="4.121" fill="#EF9A9A"/><ellipse rx="4.016" ry="7.727" transform="matrix(.70085 -.71331 .72133 .69259 32.766 28.07)" fill="#93C6EB"/><path fill="#C2DEA3" d="M16.395 17.905l9.433-9.925 5.588 5.19-9.433 9.925z"/><rect width="6.956" height="5.217" rx="1" transform="matrix(.7339 .67927 -.68766 .72603 8.785 11.14)" fill="#C49A6C"/><path fill="#F57B20" d="M8.333 19.362H14.2v16.8H8.333z"/><path d="M8.333 5.434h5.866v14.548a2.933 2.933 0 01-5.866 0V5.434z" fill="#F6A725"/><path fill="#F6EF3E" d="M7.52 18.042h7.499v1.649H7.52z"/><path fill="#F57B20" d="M28.346 19.362h5.867v16.8h-5.867z"/><path d="M28.346 5.434h5.867v14.548a2.933 2.933 0 01-5.867 0V5.434z" fill="#F6A725"/><path fill="#F6EF3E" d="M27.533 18.042h7.499v1.649h-7.499z"/><g filter="url(#a)" fill="currentColor"><path d="M164.789 19.057c.807-.507 1.211-1.29 1.211-2.347 0-1.382-.581-2.467-1.743-3.257-1.13-.803-2.462-1.205-3.996-1.205a6.998 6.998 0 00-4.116 1.311c-1.227.86-1.841 2.009-1.841 3.447 0 .536.17.98.509 1.332.339.338.823.508 1.453.508.613 0 1.081-.17 1.404-.508.339-.352.509-.796.509-1.332-.033-.409.105-.825.411-1.248.307-.437.864-.655 1.671-.655.678.014 1.162.183 1.453.507.307.325.444.649.412.973 0 .226-.081.451-.242.677a2.253 2.253 0 01-.509.528c-.161.127-.428.31-.799.55-.371.24-.63.409-.775.508-.839.606-1.259 1.41-1.259 2.41 0 .494.177.91.533 1.248.371.324.863.486 1.477.486.613 0 1.097-.162 1.453-.486.371-.338.557-.754.557-1.248 0-.211.04-.409.121-.592.08-.183.209-.352.387-.507.194-.155.355-.282.484-.38.146-.1.356-.227.63-.382.291-.155.492-.267.605-.338zM144.098 23.51l4.289-5.25c.44-.635 1.037-.988 1.791-1.06.754-.086 1.413.094 1.979.54.566.447.833 1.045.801 1.794v7.519c0 .475-.188.878-.565 1.21-.362.317-.802.475-1.32.475s-.966-.158-1.343-.475a1.581 1.581 0 01-.542-1.21v-4.667l-4.289 5.25c-.44.634-1.037.987-1.791 1.059-.754.086-1.414-.094-1.979-.54-.566-.447-.833-1.045-.801-1.794v-7.497c0-.475.18-.879.542-1.21a1.966 1.966 0 011.343-.497c.518 0 .958.166 1.319.497.378.331.566.735.566 1.21v4.645z"/><path fill-rule="evenodd" clip-rule="evenodd" d="M124.817 26.98v-8.158c0-.47-.199-.872-.595-1.21a1.932 1.932 0 00-1.356-.527c-.507 0-.951.176-1.332.528-.38.337-.571.74-.571 1.209v-.198c-.19-.44-.571-.813-1.141-1.121-.571-.323-1.221-.484-1.951-.484-1.427 0-2.743.52-3.948 1.561-1.174 1.04-1.76 2.47-1.76 4.288 0 1.861.579 3.305 1.736 4.33 1.158 1.027 2.482 1.54 3.972 1.54.73 0 1.372-.132 1.927-.396.555-.278.959-.608 1.213-.99.095.397.317.726.666.99.349.25.745.374 1.189.374.523 0 .975-.169 1.356-.506.396-.337.595-.747.595-1.23zm-6.084-1.5c1.3 0 2.354-1.128 2.354-2.52 0-1.393-1.054-2.521-2.354-2.521s-2.353 1.128-2.353 2.52c0 1.393 1.053 2.521 2.353 2.521z"/><path d="M107.15 21.311v-2.358c0-.479.197-.885.589-1.219a2.008 2.008 0 011.375-.523c.523 0 .981.175 1.374.523.392.334.589.74.589 1.22v8.078c0 .479-.197.885-.589 1.219-.377.334-.835.5-1.374.5-.54 0-1.007-.166-1.399-.5-.376-.334-.565-.74-.565-1.22V24.64h-4.245v2.393c0 .479-.196.885-.589 1.219-.376.334-.834.5-1.374.5-.54 0-1.006-.166-1.398-.5-.377-.334-.565-.74-.565-1.22v-8.078c0-.479.196-.885.59-1.219.392-.348.85-.523 1.373-.523.524 0 .982.175 1.374.523.393.334.589.74.589 1.22v2.357h4.245zM97.01 17.212c.384 0 .713.144.988.433.275.288.412.954.412 1.358 0 .404-.137.822-.412 1.11-.275.289-.604.39-.989.39h-3.29v6.57c0 1.243-1.105 1.679-2.212 1.679-1.029 0-2.01-.551-2.01-1.667l.034-9.873h7.478zM73.537 12.248v14.668c0 .484-.266.894-.634 1.231-.353.337-.907.506-1.413.506s-1.237-.169-1.605-.506a1.639 1.639 0 01-.53-1.231V15.559h-5.92v11.357c0 .484-.183.894-.551 1.231-.353.337-1.071.506-1.577.506s-1.17-.169-1.537-.506a1.64 1.64 0 01-.53-1.231V12.248h14.297zM86.64 26.953c-1.198 1.112-2.8 1.668-4.807 1.668-2.007 0-3.6-.556-4.78-1.668-1.215-1.129-1.822-2.54-1.822-4.233 0-1.71.607-3.12 1.822-4.232 1.18-1.112 2.773-1.668 4.78-1.668s3.61.556 4.806 1.668c1.198 1.128 1.796 2.54 1.796 4.232 0 1.693-.598 3.104-1.796 4.233zm-3.117-5.976a2.049 2.049 0 00-1.241-.622 2.57 2.57 0 00-1.373.125 2.48 2.48 0 00-1.083.846c-.282.398-.405.863-.37 1.394 0 .697.22 1.278.66 1.743.458.448 1.03.672 1.717.672.704 0 1.276-.216 1.717-.647.44-.448.66-1.037.66-1.768 0-.697-.229-1.278-.687-1.742zM130.438 17.157c2.251 0 8.249.033 8.249.033s.004 7.252.004 9.786c0 .487-.202.907-.607 1.26-.387.335-.736.503-1.325.503s-.889.044-1.294-.292c-.386-.352-.742-.984-.742-1.47V20.43h-2.732c0 4.693.001 5.724-1.746 7.402-.644.604-1.472.907-2.484.907-.608 0-.964-.144-1.351-.48-.386-.352-.686-.915-.686-1.435 0-1.12.237-1.566.844-2.297 1.743 0 1.667-.417 1.558-3.593V18.92c.018-.487.109-1.763.109-1.763h2.203zM162.841 26.27c0 1.363-1.167 2.468-2.607 2.468-1.44 0-2.607-1.105-2.607-2.467 0-1.363 1.167-2.468 2.607-2.468 1.44 0 2.607 1.105 2.607 2.468z"/></g><defs><filter id="a" x="57.241" y="11.248" width="110.759" height="20.504" filterUnits="userSpaceOnUse" color-interpolation-filters="sRGB"><feFlood flood-opacity="0" result="BackgroundImageFix"/><feColorMatrix in="SourceAlpha" values="0 0 0 0 0 0 0 0 0 0 0 0 0 0 0 0 0 0 127 0" result="hardAlpha"/><feOffset dy="1"/><feGaussianBlur stdDeviation="1"/><feColorMatrix values="0 0 0 0 0 0 0 0 0 0 0 0 0 0 0 0 0 0 0.3 0"/><feBlend in2="BackgroundImageFix" result="effect1_dropShadow"/><feBlend in="SourceGraphic" in2="effect1_dropShadow" result="shape"/></filter></defs></g><g class="logo__desktop"><path d="M93.996 12.644L53.899 50 39.264 2.11l54.732 10.534z" fill="#FF8D30"/><ellipse cx="94.727" cy="33.897" rx="4.353" ry="4.252" fill="#88BFEB"/><ellipse cx="111.867" cy="21.531" rx="15.174" ry="14.821" fill="#EB9898"/><path fill="#72A73E" d="M102.938 23.303l52.793-19.082 9.949 26.26-52.793 19.083z"/><ellipse cx="110.041" cy="40.644" rx="2.551" ry="2.491" fill="#FFBD30"/><ellipse rx="22.779" ry="9.039" transform="matrix(.97092 .2394 -.25022 .96819 159.093 33.393)" fill="#8EC7F5"/><ellipse cx="176.368" cy="12.21" rx="2.594" ry="2.534" fill="#FFBD30"/><ellipse cx="184.46" cy="9.2" rx="2.594" ry="2.534" fill="#FFBD30"/><path d="M4.026 42.082h6.013v2.952a1 1 0 01-1 1H5.026a1 1 0 01-1-1v-2.952zM41.209 42.082h6.013v2.952a1 1 0 01-1 1H42.21a1 1 0 01-1-1v-2.952z" fill="#1D2959"/><path fill-rule="evenodd" clip-rule="evenodd" d="M28.82 3.498c-1.173-.458-2.454-.825-3.384-.807-.875.017-2.073.388-3.167.833-.612.25-1.216.525-1.799.836l-.004.003a1.44 1.44 0 01-1.938-.55 1.39 1.39 0 01.559-1.906 24.37 24.37 0 012.09-.974C22.32.467 23.937.03 25.38.001c1.535-.03 3.267.412 4.492.89a21.37 21.37 0 012.24 1.01h.002c.692.369.95 1.22.576 1.901-.373.678-1.25.926-1.937.565a21.707 21.707 0 00-1.932-.869z" fill="#8A4A38"/><path fill-rule="evenodd" clip-rule="evenodd" d="M19.268 1.726c-.64 0-1.158.519-1.158 1.158v.707c0 .533.432.965.965.965h.026v3.651h1.01V4.53h-.248a1.415 1.415 0 00-.273-2.804h-.322zM31.943 1.726c.64 0 1.158.519 1.158 1.158v.707a.965.965 0 01-.965.965h-.026v3.651H31.1V4.53h.248a1.415 1.415 0 01.272-2.804h.323z" fill="#F6EF3E"/><path d="M0 16.762a9 9 0 019-9h33.253a9 9 0 019 9v25.32H0v-25.32z" fill="#8A4A38"/><ellipse cx="8.053" cy="33.247" rx="5.021" ry="4.906" fill="#EF9A9A"/><ellipse rx="4.809" ry="9.257" transform="matrix(.7051 -.7091 .72546 .68826 39.477 33.416)" fill="#93C6EB"/><path fill="#C2DEA3" d="M19.754 21.316L31.119 9.5l6.732 6.179-11.364 11.815z"/><rect width="8.335" height="6.246" rx="1" transform="matrix(.73793 .67488 -.69199 .7219 10.585 13.261)" fill="#C49A6C"/><path fill="#F57B20" d="M10.04 23.05h7.068v20H10.04z"/><path d="M10.04 6.47h7.068v17.294c0 1.942-1.593 3.516-3.534 3.516-1.942 0-3.534-1.574-3.534-3.516V6.47z" fill="#F6A725"/><path fill="#F6EF3E" d="M9.06 21.479h9.035v1.964H9.06z"/><path fill="#F57B20" d="M34.152 23.05h7.068v20h-7.068z"/><path d="M34.152 6.47h7.068v17.294c0 1.942-1.592 3.516-3.534 3.516-1.942 0-3.534-1.574-3.534-3.516V6.47z" fill="#F6A725"/><path fill="#F6EF3E" d="M33.172 21.479h9.035v1.964h-9.035z"/><g filter="url(#b)" fill="currentColor"><path d="M198.541 22.687c.972-.604 1.459-1.536 1.459-2.794 0-1.645-.701-2.937-2.101-3.877-1.361-.957-2.966-1.435-4.814-1.435-1.809 0-3.462.52-4.959 1.56-1.479 1.025-2.218 2.392-2.218 4.104 0 .638.205 1.166.613 1.586.408.403.992.604 1.751.604.739 0 1.303-.201 1.692-.604.408-.42.612-.948.612-1.586-.039-.487.127-.982.496-1.485.37-.52 1.041-.78 2.013-.78.817.016 1.401.218 1.751.604.369.386.535.772.496 1.158 0 .268-.097.537-.292.805a2.68 2.68 0 01-.613.63c-.194.15-.515.369-.962.654-.448.285-.759.487-.934.604-1.011.722-1.517 1.679-1.517 2.87 0 .588.214 1.083.642 1.486.447.386 1.04.578 1.779.578.739 0 1.323-.192 1.751-.578.447-.403.671-.898.671-1.486 0-.252.049-.486.146-.705.097-.218.253-.42.467-.604.233-.184.427-.336.583-.453.175-.117.428-.269.759-.453a14.3 14.3 0 00.729-.403zM173.612 27.987l5.167-6.25c.53-.754 1.249-1.174 2.158-1.26.908-.103 1.703.111 2.384.643.682.531 1.003 1.243.966 2.135v8.95c0 .567-.228 1.047-.682 1.441-.435.377-.965.566-1.59.566-.624 0-1.164-.189-1.618-.566-.435-.394-.653-.874-.653-1.44V26.65l-5.167 6.25c-.53.755-1.249 1.175-2.158 1.26-.908.103-1.703-.11-2.385-.642-.681-.532-1.003-1.244-.965-2.135v-8.926c0-.566.218-1.046.653-1.44a2.387 2.387 0 011.618-.592c.625 0 1.155.197 1.59.592.455.394.682.875.682 1.44v5.53z"/><path fill-rule="evenodd" clip-rule="evenodd" d="M150.381 32.118v-9.71c0-.56-.239-1.04-.716-1.44a2.342 2.342 0 00-1.634-.629c-.611 0-1.146.21-1.605.629-.458.4-.687.88-.687 1.44v-.236c-.23-.524-.688-.969-1.376-1.335-.688-.384-1.471-.576-2.35-.576-1.719 0-3.305.62-4.757 1.858-1.414 1.24-2.12 2.94-2.12 5.104 0 2.216.697 3.935 2.091 5.157 1.395 1.221 2.99 1.832 4.786 1.832.879 0 1.653-.157 2.321-.471.669-.332 1.156-.724 1.462-1.178.114.471.382.864.802 1.178.421.296.898.445 1.433.445a2.4 2.4 0 001.634-.602c.477-.402.716-.89.716-1.466zm-7.329-1.785c1.566 0 2.836-1.343 2.836-3s-1.27-3-2.836-3c-1.566 0-2.836 1.343-2.836 3s1.27 3 2.836 3z"/><path d="M129.097 25.37v-2.806c0-.57.236-1.055.709-1.452a2.433 2.433 0 011.656-.622c.63 0 1.182.207 1.655.622.473.397.71.881.71 1.452v9.616c0 .57-.237 1.054-.71 1.452-.453.397-1.005.596-1.655.596-.651 0-1.212-.199-1.685-.596-.454-.398-.68-.881-.68-1.452v-2.848h-5.115v2.848c0 .57-.237 1.054-.71 1.452-.453.397-1.005.596-1.655.596-.651 0-1.212-.199-1.685-.596-.454-.398-.68-.881-.68-1.452v-9.616c0-.57.236-1.055.709-1.452a2.433 2.433 0 011.656-.622c.63 0 1.182.207 1.655.622.473.397.71.881.71 1.452v2.806h5.115zM116.878 20.49c.464 0 .861.172 1.192.515.331.344.496 1.136.496 1.617 0 .481-.165.979-.496 1.322-.331.344-.728.465-1.192.465h-3.964v7.82c0 1.48-1.331 2-2.666 2-1.238 0-2.421-.657-2.421-1.985l.041-11.754h9.01zM88.598 14.58v17.463c0 .576-.32 1.064-.763 1.465-.425.402-1.093.602-1.703.602-.61 0-1.49-.2-1.934-.602a1.94 1.94 0 01-.637-1.465v-13.52h-7.133v13.52c0 .576-.221 1.064-.665 1.465-.425.402-1.29.602-1.9.602-.61 0-1.408-.2-1.852-.602a1.94 1.94 0 01-.637-1.465V14.58h17.224zM104.385 32.087c-1.443 1.323-3.373 1.985-5.791 1.985s-4.338-.662-5.76-1.985c-1.463-1.344-2.195-3.024-2.195-5.04 0-2.034.732-3.714 2.196-5.038 1.42-1.324 3.34-1.986 5.759-1.986 2.418 0 4.348.662 5.791 1.986 1.442 1.344 2.163 3.023 2.163 5.039 0 2.015-.721 3.695-2.163 5.039zm-3.755-7.114a2.478 2.478 0 00-1.495-.74 3.132 3.132 0 00-1.655.147c-.51.198-.944.534-1.305 1.008-.339.474-.487 1.028-.445 1.66 0 .83.265 1.521.795 2.075.552.533 1.241.8 2.069.8.848 0 1.538-.257 2.068-.77.53-.534.795-1.236.795-2.105 0-.83-.275-1.522-.827-2.075zM157.154 20.425c2.712 0 9.938.04 9.938.04s.005 8.633.005 11.65c0 .58-.244 1.079-.731 1.498-.466.4-.887.6-1.597.6-.709 0-1.071.052-1.558-.347-.466-.42-.894-1.172-.894-1.751v-7.793h-3.292c0 5.586.001 6.813-2.104 8.812-.776.719-1.774 1.079-2.993 1.079-.732 0-1.161-.172-1.627-.571-.466-.42-.827-1.09-.827-1.71 0-1.332.286-1.863 1.018-2.733 2.099 0 2.008-.497 1.876-4.278v-2.398c.023-.58.132-2.098.132-2.098h2.654zM196.194 31.275c0 1.622-1.406 2.937-3.141 2.937s-3.141-1.315-3.141-2.937c0-1.622 1.406-2.938 3.141-2.938s3.141 1.316 3.141 2.938z"/></g><defs><filter id="b" x="69.374" y="13.581" width="132.626" height="23.647" filterUnits="userSpaceOnUse" color-interpolation-filters="sRGB"><feFlood flood-opacity="0" result="BackgroundImageFix"/><feColorMatrix in="SourceAlpha" values="0 0 0 0 0 0 0 0 0 0 0 0 0 0 0 0 0 0 127 0" result="hardAlpha"/><feOffset dy="1"/><feGaussianBlur stdDeviation="1"/><feColorMatrix values="0 0 0 0 0 0 0 0 0 0 0 0 0 0 0 0 0 0 0.3 0"/><feBlend in2="BackgroundImageFix" result="effect1_dropShadow"/><feBlend in="SourceGraphic" in2="effect1_dropShadow" result="shape"/></filter></defs></g></svg>